<mxfile host="app.diagrams.net" modified="2024-01-30T14:37:31.911Z" agent="Mozilla/5.0 (Windows NT 10.0; Win64; x64) AppleWebKit/537.36 (KHTML, like Gecko) Chrome/118.0.0.0 YaBrowser/23.11.0.0 Safari/537.36" version="23.0.2" etag="St0KJPSpnFvFK_HMlCJ4" type="github">
  <diagram name="Страница — 1" id="laE1bCQd7Pq51wDG-UXD">
    <mxGraphModel>
      <root>
        <mxCell id="0" />
        <mxCell id="1" parent="0" />
      </root>
    </mxGraphModel>
  </diagram>
</mxfile>
